<svg xmlns="http://www.w3.org/2000/svg" xmlns:xlink="http://www.w3.org/1999/xlink" viewBox="0 0 554.69 121.43"><defs><style>.cls-1,.cls-2{fill:#336;}.cls-1{stroke:#000;}.cls-1,.cls-4{stroke-miterlimit:10;}.cls-3{fill:none;}.cls-4{stroke:#fff;fill:url(#名称未設定グラデーション_37);}</style><radialGradient id="名称未設定グラデーション_37" cx="182.41" cy="20.39" r="17.65" gradientUnits="userSpaceOnUse"><stop offset="0" stop-color="#fff"/><stop offset="0" stop-color="#fcfefe"/><stop offset="0.11" stop-color="#b0dee4"/><stop offset="0.19" stop-color="#80cbd4"/><stop offset="0.23" stop-color="#6ec3ce"/><stop offset="0.99" stop-color="#7c7c9d" stop-opacity="0.68"/></radialGradient></defs><g id="Text"><path class="cls-1" d="M-62.5,16.5" transform="translate(0.02 0.5)"/><path class="cls-1" d="M-62.5,16.5" transform="translate(0.02 0.5)"/><path class="cls-2" d="M518.75,112.23c-1,0-2.09,0-3.25.11l.08-.34.38-.09c.87-.19,1.06-.42,1.38-1.64.16-.66.69-3.47,1-5.14.38-1.9,1-5,1-5.7s-.21-.68-.87-.85l-.33-.08.06-.34c1.18,0,2.24.09,3.21.09s2.05,0,3.21-.09l0,.34-.34.08c-1,.26-1.12.57-1.37,1.69-.32,1.5-.74,3.64-1,4.72-.38,2-1,5.51-1,6s.21.74,1.1.74a6.11,6.11,0,0,0,.93,0c1.84-.1,2.94-1.16,5.22-4.69h.36c-.59,2-1.2,4.06-1.46,5.35C524.27,112.32,520.46,112.23,518.75,112.23Z" transform="translate(0.02 0.5)"/><path class="cls-2" d="M540.2,109.38c-.3,1.86-1.29,3.08-3,3.08a1.53,1.53,0,0,1-1.76-1.69,5.33,5.33,0,0,1,.17-1.16l-.1,0c-.72,2-2,3-3.53,3-1.8,0-2.85-1.37-2.85-3.44,0-3.76,2.19-7.46,6.46-7.46a4.61,4.61,0,0,1,2.52.63l1.6-.55H540l-1.37,7.34a8,8,0,0,0-.19,1.33c0,.23.06.31.21.31.36,0,.78-.34,1.31-1.45Zm-3.81-6.25c-.31-.76-.72-1-1.18-1-1.86,0-3.28,4.08-3.28,6.76,0,1.38.32,2,1.08,2s1.67-1,2.35-2.6Z" transform="translate(0.02 0.5)"/><path class="cls-2" d="M551.7,105.18c0,3.65-2.09,7.41-6.53,7.41a5.06,5.06,0,0,1-2.68-.7h-.21l-1.37.76h-.26l2.43-12a11.62,11.62,0,0,0,.28-1.71c0-.21-.07-.27-.53-.42l-.51-.17,0-.23a18,18,0,0,0,4.45-.91l.19.08c-.29,1.08-.55,2.24-.65,2.81l-.26,1.23a25.35,25.35,0,0,1-.9,3.34l.19.06c.93-2.24,2.32-3,3.42-3C550.71,101.69,551.7,103,551.7,105.18Zm-4.1.12c0-1.27-.29-2-1-2-.87,0-1.77,1-2.43,2.64l-1.08,5.24c.28.65.64.93,1.12.93C546.19,112.15,547.6,108.05,547.6,105.3Z" transform="translate(0.02 0.5)"/><path class="cls-2" d="M551.22,110.9a1.92,1.92,0,0,1,1.88-2,1.49,1.49,0,0,1,1.57,1.57,1.86,1.86,0,0,1-1.88,2A1.48,1.48,0,0,1,551.22,110.9Z" transform="translate(0.02 0.5)"/><path class="cls-3" d="M268.79,104.43c5.22,0,11.13-6.76,15.64-17.33l6.9-34.79c-2.11-5.07-4.79-6.48-7.89-6.48-12.39,0-21.83,27.19-21.83,45.08C261.61,100.06,263.72,104.43,268.79,104.43Z" transform="translate(0.02 0.5)"/><path class="cls-3" d="M465.74,104.43c5.21,0,11.13-6.76,15.64-17.33l6.9-34.79c-2.11-5.07-4.79-6.48-7.89-6.48C468,45.83,458.56,73,458.56,90.91,458.56,100.06,460.67,104.43,465.74,104.43Z" transform="translate(0.02 0.5)"/><path class="cls-2" d="M158.83,86.4c-2,9.29-2.82,13.94-2.82,16.76,0,7,3.38,11.41,12.4,11.41,11.55,0,18-8.59,20.56-20.57l-1.69-.56c-3.66,7.61-6.48,9.58-8.59,9.58-1,0-1.55-.71-1.55-2.11,0-1.69.71-4.93,1.55-9.58l4.79-23c1.83-9.16,2.82-14.37,5.07-25.07l-1.13-.57c-8.31,2.82-11.83,3.38-29,5.5L158,49.92,161.22,51c3,1.13,3.81,1.55,3.81,3,0,2-1.55,9.3-2.54,14Z" transform="translate(0.02 0.5)"/><path class="cls-2" d="M199,81.61c-1.83,8.87-3.52,17.32-3.52,21,0,9.57,6.34,12.81,14.65,12.81,12.53,0,21.12-7.46,24.65-21.41l-1.55-.56c-4.51,7.89-9.3,10.85-13.53,10.85-2.39,0-3.1-1.55-3.1-3.52,0-1.7,1.41-9.16,3-17.19L225,56.26h14.64l1.7-8H226.57L229.38,35,228,34.28C216.56,42,209.24,45.69,197.41,51.61l-.28,1.69,4.08,1c2.4.57,3.1.85,3.1,1.55,0,.43-.42,2.54-1,5.36Z" transform="translate(0.02 0.5)"/><path class="cls-2" d="M259.92,115.41c10.14,0,18.73-6.9,23.52-20l.71.14A32.94,32.94,0,0,0,283,103.3c0,6.9,3.38,11.27,11.69,11.27,11.55,0,18.17-8.17,20.14-20.57l-1.55-.56c-3.52,7.47-6.33,9.72-8.73,9.72-1,0-1.41-.56-1.41-2.11a57.16,57.16,0,0,1,1.27-8.88l9.16-48.87h-2.12L300.77,47c-4.51-3-10.28-4.23-16.76-4.23-28.46,0-43.1,24.65-43.1,49.72C240.91,106.26,248,115.41,259.92,115.41Zm23.52-69.58c3.1,0,5.78,1.41,7.89,6.48l-6.9,34.79c-4.51,10.57-10.42,17.33-15.64,17.33s-7.18-4.37-7.18-13.52C261.61,73,271.05,45.83,283.44,45.83Z" transform="translate(0.02 0.5)"/><path class="cls-2" d="M320.33,113.44H341l8.87-45.21c5.07-7.89,11.27-13.38,15.64-13.38a3.33,3.33,0,0,1,3.66,3.66c0,3.8-2.25,15.63-3.38,22.11l-6.06,32.82h20.14l5.78-31.27c.84-4.5,1.69-9.29,2.39-13.66,4.79-8,10.57-13.66,15.22-13.66,2.81,0,3.8,1.69,3.8,3.94,0,4.51-2.25,16.06-3.1,20.42-1.13,7.05-3.94,19.44-3.94,24,0,6.48,3.66,11.41,12.39,11.41,11.13,0,17.61-7.33,20.14-20.57l-1.69-.56c-3.24,7.33-6.34,9.72-8.45,9.72-.84,0-1.55-.42-1.55-2s1.27-9.3,3.24-19S428,62.31,428,57c0-7.89-5.07-14.23-15.08-14.23-10.28,0-17.18,6.91-24.08,20.71a40.49,40.49,0,0,0,.56-6.48c0-7.89-4.5-14.23-14.79-14.23-10.14,0-17.32,6.91-24.36,21l-1-.28c1.13-4.23,2.25-8,2.25-11.55,0-5.07-3.66-7.89-10.14-7.89-6.2,0-15.21,3.24-21,8.45l.57,1.41a31.72,31.72,0,0,1,6.76-.84c2.53,0,3,.7,3,2.11,0,2.68-1.13,9.58-2.68,18Z" transform="translate(0.02 0.5)"/><path class="cls-2" d="M456.87,115.41c10.14,0,18.73-6.9,23.52-20l.7.14A33.42,33.42,0,0,0,480,103.3c0,6.9,3.38,11.27,11.69,11.27,11.55,0,18.17-8.17,20.14-20.57l-1.55-.56c-3.52,7.47-6.34,9.72-8.73,9.72-1,0-1.41-.56-1.41-2.11a57.16,57.16,0,0,1,1.27-8.88l9.15-48.87h-2.11L497.72,47c-4.51-3-10.29-4.23-16.77-4.23-28.45,0-43.1,24.65-43.1,49.72C437.85,106.26,444.9,115.41,456.87,115.41Zm23.52-69.58c3.1,0,5.78,1.41,7.89,6.48l-6.9,34.79c-4.51,10.57-10.43,17.33-15.64,17.33s-7.18-4.37-7.18-13.52C458.56,73,468,45.83,480.39,45.83Z" transform="translate(0.02 0.5)"/><path class="cls-2" d="M178.88,34.28c7.19,0,11.2-5.66,11.2-11.32,0-4.84-2.83-9.08-9-9.08a11,11,0,0,0-11.2,11.2C169.92,30.5,173,34.28,178.88,34.28Z" transform="translate(0.02 0.5)"/><path class="cls-2" d="M553,118.15v2.78H141.89c-8.7-.48-15.34-.67-23.24-.67-7.58,0-15.32.16-24.19.64l.33-2.58c10.64-2.26,11.12-4.2,13.7-14.68,1-3.7,5-26.28,7.09-37.72,1.78-9.84,5-27.09,6.45-36.61L67.53,120.9h-3C56.57,88,49.31,56.89,44.15,37.54a86.1,86.1,0,0,0-2.57-8.23c-3.39,16.77-9.2,47.09-10.64,55.47-1.61,9.35-2.59,15.32-2.59,18.38,0,6.45,3.71,8.71,14.36,15.16l-.49,2.58c-6.77-.48-13.7-.64-20.32-.64-7.09,0-14,.16-21.92.64l.48-2.58c15.47-7.74,18.06-10.32,21.77-26.6L38.51,23.51C34.8,18.67,30.13,17.7,22.38,15l.33-2.42c11.29.8,24.51,1,30.64,1,6,0,10.32,0,14.83-.16-.65,5.32.16,9.68,1.13,14.19C71.73,39,77.05,62.37,83,85.59l30.64-51.92c5.15-8.71,7.89-13.23,9.5-20.16,3.07.16,6.45.16,10.64.16,8.23,0,18.55-.32,28.55-1l-.49,2.59-2.9.64c-7.25,1.94-8.06,4.19-10.48,14.19-.8,3.55-4.84,24.51-6.93,35.64-2.26,11.93-7.58,40.95-7.58,45.63,0,3.86,3.29,4.91,5.8,6l2.35.62a5.66,5.66,0,0,0,1.43.18Z" transform="translate(0.02 0.5)"/><path class="cls-4" d="M188.93,32c2.13-2.45,4.49-7.06,3.7-11.12a6.32,6.32,0,0,1,0-3.71c.6-1.55,1.54-1.41,2.45-3s1.44-4.48.33-6.24a5.84,5.84,0,0,1-.92-1.86,2.47,2.47,0,0,1,0-1.85c.38-.65,1.24-.67,2.78-.93,2.17-.36,3.81-.64,3.87-1.11.11-.73-3.63-2.08-7.28-2.17a6,6,0,0,0-3.08.5A6.38,6.38,0,0,0,188,4.21c-1,3,.22,4.35-.93,5.56-.74.79-1.63.6-4.63.93a44.25,44.25,0,0,0-5.56.92c-5.4,1.46-8.08,7.73-8.27,8.17-.64,1.56-2.65,6.42-.07,11.07,2.35,4.27,7.23,5.94,11.12,5.79A13.39,13.39,0,0,0,188.93,32Z" transform="translate(0.02 0.5)"/></g></svg>