<svg xmlns="http://www.w3.org/2000/svg" xmlns:xlink="http://www.w3.org/1999/xlink" viewBox="0 0 685.77 145.65"><defs><style>.cls-1,.cls-2,.cls-6{fill:#336;}.cls-1{stroke:#000;}.cls-1,.cls-2,.cls-3,.cls-4,.cls-7{stroke-miterlimit:10;}.cls-2,.cls-4{stroke:#336;}.cls-3,.cls-4{fill:#6ec3ce;}.cls-3{stroke:#6ec3ce;}.cls-5{fill:none;}.cls-7{stroke:#fff;fill:url(#名称未設定グラデーション_37);}</style><radialGradient id="名称未設定グラデーション_37" cx="312.71" cy="30.25" r="17.65" gradientUnits="userSpaceOnUse"><stop offset="0" stop-color="#fff"/><stop offset="0" stop-color="#fcfefe"/><stop offset="0.11" stop-color="#b0dee4"/><stop offset="0.19" stop-color="#80cbd4"/><stop offset="0.23" stop-color="#6ec3ce"/><stop offset="0.99" stop-color="#7c7c9d" stop-opacity="0.68"/></radialGradient></defs><g id="触角"><path class="cls-1" d="M72.12,78" transform="translate(0.8 0.26)"/></g><g id="レイヤー_5のコピー_2" data-name="レイヤー 5のコピー 2"><path class="cls-2" d="M100.52,46.38" transform="translate(0.8 0.26)"/><path class="cls-3" d="M122.69,88.24c-1.63,3.37-9.18,18.69-23.77,25.74a29.81,29.81,0,0,0-.73-4.5,44,44,0,0,0-1.88-7.86,12.3,12.3,0,0,0-.64-1.75c-2.08-5.17-5.25-9.45-9.77-11.94a133.91,133.91,0,0,0,9.23-11.87l.55-.8C110.57,77.35,121,86.66,122.69,88.24Z" transform="translate(0.8 0.26)"/><path class="cls-4" d="M76.52,57.58" transform="translate(0.8 0.26)"/></g><g id="レイヤー_5のコピー" data-name="レイヤー 5のコピー"><path class="cls-2" d="M93,142.9c8.27-12,9.87-48.34-9-55.92C95.25,103.73,98.13,121.1,93,142.9Z" transform="translate(0.8 0.26)"/><path class="cls-2" d="M100.52,46.38" transform="translate(0.8 0.26)"/><path class="cls-4" d="M76.52,57.58" transform="translate(0.8 0.26)"/><path class="cls-2" d="M.15,82.71C-1,80.85.25,76.84,2.82,75c11.67-6.75,25.79,19.06,23.5,20.8C24.76,97,19.82,82.66,6.89,83.73,4.82,83.9,1.35,84.57.15,82.71Z" transform="translate(0.8 0.26)"/><path class="cls-3" d="M6.09,100.49c-2.63-.64-2.83-5.56-.36-6.6,4.94-3.62,16.77,0,16.58,1.26-.16,1.07-8.22-2.56-13,3C8.5,99.09,7.37,100.74,6.09,100.49Z" transform="translate(0.8 0.26)"/><path class="cls-2" d="M26.12,108c-2.46-1.58-3.48-5.89-2-8.8,0,0,1.56-3.05,6.8-4,11.61-2.09,33.08,34.1,38.8,44-5.54-5.68-9.88-10.38-12.8-13.6-5.86-6.44-9.08-10.31-14.8-13.6-3.36-1.92-5.92-3.39-9.6-3.6C29.35,108.21,27.87,109.11,26.12,108Z" transform="translate(0.8 0.26)"/><path class="cls-3" d="M46.32,72.17c.85-13.63,11.56-30.65,21.35-41.07,1.44-1.53,2.89-3,4.32-4.27A70.55,70.55,0,0,0,54.92.38C52,2.5,30.45,18.5,28.52,47.58,26.44,79,49,98.43,51.32,100.38c.5-.42,1.65-1.42,3.19-2.94C48.72,89,45.82,80.31,46.32,72.17Z" transform="translate(0.8 0.26)"/><path class="cls-5" d="M81.85,40.32c7.26.94,12.08,6.48,14.28,12.15.66-2.44,1-4.2,1.17-4.79a98.66,98.66,0,0,0,1.24-34.14A83.7,83.7,0,0,0,83.32,24.78a85.81,85.81,0,0,0-15.4,19.37C71.07,42,76.08,39.58,81.85,40.32Z" transform="translate(0.8 0.26)"/><path class="cls-5" d="M73.47,94.92c2.55-2.79,3.83-4.18,5-5.59a86.81,86.81,0,0,0,12.37-21c1.11-4.39,2-10.45-1.51-15.46a14.4,14.4,0,0,0-8-5c-1.14-.23-3.82-1.26-9.27,1.24C65.67,52,62.17,56.77,60.2,59.22a58.19,58.19,0,0,0-3.68,10c-1.85,6.89-5,23.13,2.26,40.46C62.07,106.64,67.13,101.85,73.47,94.92Z" transform="translate(0.8 0.26)"/><path class="cls-6" d="M59.66,110.6C89.17,88.78,121.45,56.22,99.43,13c1.6-.9,3.29-1.79,5.09-2.65-1.66.4-3.55.92-5.61,1.59-.29-.59-1.12-3.26-1.39-3.79.1.63.74,3.36.83,4C63.63,22.66,19.67,75.46,58.74,109.67c-5.67,5-5.65,5.1.55,1.17,7.36,26.86,56.53,32.78,63.23,31.14C95.35,136.33,73.54,124.41,59.66,110.6ZM83.32,24.78A83.7,83.7,0,0,1,98.54,13.54c2,17.67.57,26.74-2.41,38.93-3.88-12-18.76-15.81-28.21-8.32A85.81,85.81,0,0,1,83.32,24.78Zm-26.8,44.4c10.21-41,72.15-21.34,2.26,40.46C51.55,92.31,54.67,76.07,56.52,69.18Z" transform="translate(0.8 0.26)"/><path class="cls-2" d="M59.72,105.58c6.69-15.12-3.22-25.84,5.76-38.82,5.17-7.27,18.3-6,16.09,4.55-1,4.48-5.36,6.59-10.42,12.18C67.54,87.48,63,95.84,59.72,105.58Z" transform="translate(0.8 0.26)"/></g><g id="Text"><path class="cls-6" d="M649.06,122.09c-1,0-2.1,0-3.26.1l.09-.34.38-.08c.86-.19,1.05-.42,1.37-1.65.17-.65.7-3.46,1-5.13.38-1.9,1-5,1-5.71,0-.55-.22-.67-.87-.84l-.34-.09.06-.33c1.19,0,2.24.08,3.22.08s2,0,3.21-.08l0,.33-.34.09c-1,.25-1.12.57-1.38,1.69-.31,1.5-.74,3.63-.95,4.71-.38,2-1,5.51-1,6s.21.74,1.1.74a8.72,8.72,0,0,0,.93,0c1.83-.11,2.93-1.16,5.21-4.69h.36c-.59,2-1.2,4.06-1.45,5.34C654.57,122.17,650.77,122.09,649.06,122.09Z" transform="translate(0.8 0.26)"/><path class="cls-6" d="M670.5,119.23c-.29,1.86-1.29,3.09-3,3.09a1.53,1.53,0,0,1-1.75-1.69,4.71,4.71,0,0,1,.17-1.16l-.11,0c-.72,2-2,3-3.53,3-1.79,0-2.85-1.38-2.85-3.45,0-3.76,2.2-7.46,6.47-7.46a4.49,4.49,0,0,1,2.51.64l1.61-.55h.31L668.94,119a8.19,8.19,0,0,0-.19,1.33c0,.23.06.32.21.32.36,0,.78-.34,1.31-1.46ZM666.7,113c-.32-.76-.72-1-1.19-1-1.86,0-3.27,4.08-3.27,6.76,0,1.37.32,2,1.08,2s1.67-1,2.34-2.6Z" transform="translate(0.8 0.26)"/><path class="cls-6" d="M682,115c0,3.65-2.09,7.42-6.53,7.42a5.1,5.1,0,0,1-2.68-.7h-.22l-1.37.76H671l2.43-12a11.36,11.36,0,0,0,.27-1.72c0-.21-.06-.27-.53-.42l-.5-.17,0-.23a18.24,18.24,0,0,0,4.46-.91l.19.09c-.3,1.07-.55,2.24-.66,2.81l-.25,1.22a24.17,24.17,0,0,1-.91,3.34l.19.06c.93-2.24,2.32-3,3.42-3C681,111.54,682,112.81,682,115Zm-4.1.13c0-1.27-.3-2-1-2-.87,0-1.78,1.06-2.43,2.64l-1.08,5.24c.27.66.63.93,1.12.93C676.49,122,677.91,117.9,677.91,115.16Z" transform="translate(0.8 0.26)"/><path class="cls-6" d="M681.53,120.76a1.9,1.9,0,0,1,1.88-2,1.47,1.47,0,0,1,1.56,1.56,1.86,1.86,0,0,1-1.88,2A1.47,1.47,0,0,1,681.53,120.76Z" transform="translate(0.8 0.26)"/><path class="cls-5" d="M399.1,114.28c5.21,0,11.13-6.76,15.63-17.32l6.91-34.79c-2.12-5.07-4.79-6.48-7.89-6.48-12.4,0-21.83,27.18-21.83,45.07C391.92,109.92,394,114.28,399.1,114.28Z" transform="translate(0.8 0.26)"/><path class="cls-5" d="M596.05,114.28c5.21,0,11.12-6.76,15.63-17.32l6.9-34.79c-2.11-5.07-4.79-6.48-7.88-6.48-12.4,0-21.84,27.18-21.84,45.07C588.86,109.92,591,114.28,596.05,114.28Z" transform="translate(0.8 0.26)"/><path class="cls-6" d="M289.13,96.25c-2,9.3-2.81,14-2.81,16.76,0,7,3.38,11.41,12.39,11.41,11.55,0,18-8.59,20.57-20.56l-1.69-.56c-3.67,7.6-6.48,9.57-8.6,9.57-1,0-1.55-.7-1.55-2.11,0-1.69.71-4.93,1.55-9.58l4.79-23c1.83-9.15,2.82-14.36,5.07-25.07l-1.12-.56c-8.31,2.82-11.83,3.38-29,5.49l-.42,1.69,3.24,1.13c3,1.13,3.8,1.55,3.8,3,0,2-1.55,9.29-2.53,13.94Z" transform="translate(0.8 0.26)"/><path class="cls-6" d="M329.26,91.46c-1.83,8.88-3.52,17.33-3.52,21,0,9.58,6.34,12.82,14.65,12.82,12.54,0,21.13-7.47,24.65-21.41l-1.55-.56c-4.51,7.88-9.3,10.84-13.52,10.84-2.4,0-3.1-1.55-3.1-3.52,0-1.69,1.41-9.16,3-17.18l5.49-27.33H370l1.69-8H356.87l2.82-13.24-1.41-.7c-11.41,7.74-18.73,11.41-30.57,17.32l-.28,1.69,4.09,1c2.39.56,3.1.84,3.1,1.55,0,.42-.43,2.53-1,5.35Z" transform="translate(0.8 0.26)"/><path class="cls-6" d="M390.23,125.27c10.14,0,18.73-6.9,23.52-20l.7.14a33.34,33.34,0,0,0-1.12,7.75c0,6.9,3.38,11.26,11.69,11.26,11.55,0,18.17-8.17,20.14-20.56l-1.55-.56c-3.52,7.46-6.34,9.71-8.73,9.71-1,0-1.41-.56-1.41-2.11a57.78,57.78,0,0,1,1.26-8.87l9.16-48.88h-2.11l-10.71,3.66c-4.5-3-10.28-4.22-16.76-4.22-28.45,0-43.1,24.65-43.1,49.72C371.21,116.11,378.25,125.27,390.23,125.27Zm23.52-69.58c3.1,0,5.77,1.41,7.89,6.48L414.73,97c-4.5,10.56-10.42,17.32-15.63,17.32s-7.18-4.36-7.18-13.52C391.92,82.87,401.35,55.69,413.75,55.69Z" transform="translate(0.8 0.26)"/><path class="cls-6" d="M450.64,123.3h20.7l8.88-45.22c5.07-7.89,11.27-13.38,15.63-13.38a3.33,3.33,0,0,1,3.67,3.66c0,3.81-2.26,15.64-3.39,22.12l-6.05,32.82h20.14L516,92c.85-4.51,1.69-9.3,2.4-13.67,4.79-8,10.56-13.66,15.21-13.66,2.82,0,3.8,1.69,3.8,4,0,4.5-2.25,16-3.09,20.42-1.13,7-3.95,19.44-3.95,23.94,0,6.48,3.66,11.41,12.4,11.41,11.12,0,17.6-7.32,20.14-20.56l-1.69-.56c-3.24,7.32-6.34,9.71-8.45,9.71-.85,0-1.55-.42-1.55-2s1.26-9.29,3.24-19c1.83-9.72,3.8-19.86,3.8-25.22,0-7.88-5.07-14.22-15.07-14.22-10.28,0-17.18,6.9-24.09,20.7a39.43,39.43,0,0,0,.57-6.48c0-7.88-4.51-14.22-14.79-14.22s-17.33,6.9-24.37,21l-1-.29c1.13-4.22,2.26-8,2.26-11.55,0-5.07-3.67-7.88-10.14-7.88-6.2,0-15.22,3.24-21,8.45l.56,1.41a31.23,31.23,0,0,1,6.76-.85c2.54,0,3,.71,3,2.11,0,2.68-1.13,9.58-2.67,18Z" transform="translate(0.8 0.26)"/><path class="cls-6" d="M587.17,125.27c10.14,0,18.74-6.9,23.53-20l.7.14a33.4,33.4,0,0,0-1.13,7.75c0,6.9,3.38,11.26,11.69,11.26,11.55,0,18.17-8.17,20.15-20.56l-1.55-.56c-3.53,7.46-6.34,9.71-8.74,9.71-1,0-1.41-.56-1.41-2.11a58.22,58.22,0,0,1,1.27-8.87l9.16-48.88h-2.12L628,56.81c-4.51-3-10.28-4.22-16.76-4.22-28.45,0-43.1,24.65-43.1,49.72C568.16,116.11,575.2,125.27,587.17,125.27ZM610.7,55.69c3.09,0,5.77,1.41,7.88,6.48L611.68,97c-4.51,10.56-10.42,17.32-15.63,17.32s-7.19-4.36-7.19-13.52C588.86,82.87,598.3,55.69,610.7,55.69Z" transform="translate(0.8 0.26)"/><path class="cls-6" d="M309.18,44.13c7.2,0,11.21-5.66,11.21-11.32,0-4.83-2.83-9.08-9-9.08a11,11,0,0,0-11.2,11.2C300.22,40.36,303.29,44.13,309.18,44.13Z" transform="translate(0.8 0.26)"/><path class="cls-6" d="M683.3,128v2.78H272.2c-8.7-.48-15.35-.68-23.24-.68-7.58,0-15.32.16-24.19.64l.32-2.57c10.64-2.27,11.12-4.2,13.71-14.68,1-3.71,5-26.28,7.09-37.73,1.78-9.83,5-27.09,6.45-36.6l-54.5,91.58h-3.06c-7.9-32.89-15.16-64-20.32-83.35a85,85,0,0,0-2.58-8.23c-3.38,16.77-9.19,47.08-10.64,55.47C159.63,104,158.66,110,158.66,113c0,6.44,3.7,8.71,14.35,15.16l-.49,2.57c-6.76-.48-13.7-.64-20.31-.64-7.09,0-14,.16-21.93.64l.48-2.57c15.48-7.74,18.06-10.33,21.77-26.61l16.28-68.21c-3.7-4.83-8.37-5.81-16.12-8.54L153,22.4c11.29.81,24.52,1,30.64,1,6,0,10.32,0,14.84-.16-.65,5.32.15,9.67,1.13,14.19,2.42,11.44,7.74,34.82,13.7,58L244,43.52c5.15-8.71,7.9-13.22,9.51-20.15,3.07.15,6.45.15,10.64.15,8.23,0,18.54-.31,28.54-1l-.48,2.58-2.9.64C282,27.72,281.2,30,278.79,40c-.81,3.55-4.84,24.51-6.94,35.64-2.26,11.93-7.58,41-7.58,45.63,0,3.87,3.29,4.92,5.81,6l2.34.62a5.35,5.35,0,0,0,1.43.19Z" transform="translate(0.8 0.26)"/><path class="cls-7" d="M319.23,41.87c2.14-2.45,4.5-7.06,3.71-11.12a6.16,6.16,0,0,1,0-3.71c.59-1.55,1.53-1.42,2.44-3s1.45-4.48.34-6.24a5.65,5.65,0,0,1-.93-1.85,2.52,2.52,0,0,1,0-1.85c.39-.66,1.24-.67,2.78-.93,2.17-.37,3.81-.65,3.88-1.12.1-.73-3.64-2.07-7.28-2.16a5.74,5.74,0,0,0-3.08.5,6.28,6.28,0,0,0-2.78,3.71c-1,3,.21,4.34-.93,5.56-.74.78-1.64.6-4.63.92a43.57,43.57,0,0,0-5.56.93c-5.4,1.45-8.09,7.72-8.27,8.16-.64,1.56-2.65,6.43-.08,11.08C301.2,45,306.07,46.66,310,46.5A13.34,13.34,0,0,0,319.23,41.87Z" transform="translate(0.8 0.26)"/></g></svg>